<svg viewBox="0 0 16 16" fill="#000000" xmlns="http://www.w3.org/2000/svg" id="Facebook-Circle-Line--Streamline-Remix" height="16" width="16">
  <desc>
    Facebook Circle Line Streamline Icon: https://streamlinehq.com
  </desc>
  <path d="M8.667333333333332 13.292066666666665c2.6308666666666665 -0.3280666666666666 4.666666666666666 -2.572333333333333 4.666666666666666 -5.292066666666667 0 -2.94552 -2.3878 -5.333333333333333 -5.333333333333333 -5.333333333333333s-5.333346666666666 2.387813333333333 -5.333346666666666 5.333333333333333c0 2.719733333333333 2.0357933333333333 4.9639999999999995 4.6666799999999995 5.292066666666667V9.333333333333332H6.000653333333333v-1.3333333333333333H7.334v-1.1027999999999998c0 -0.8915 0.0928 -1.2147866666666665 0.26713333333333333 -1.5407133333333332 0.17426666666666668 -0.32592666666666664 0.43006666666666665 -0.5817133333333333 0.7559999999999999 -0.75602 0.2551333333333333 -0.13644 0.5716 -0.21878666666666668 1.1246666666666667 -0.25410666666666665 0.21946666666666664 -0.01402 0.5035999999999999 0.0038599999999999997 0.8522 0.05364v1.2666666666666666h-0.3333333333333333c-0.6115333333333333 0 -0.8638666666666667 0.028879999999999996 -1.0147333333333333 0.10955333333333334 -0.09353333333333333 0.05004 -0.15899999999999997 0.11549999999999999 -0.20906666666666665 0.20906666666666665 -0.08066666666666666 0.15083333333333332 -0.10953333333333333 0.3004 -0.10953333333333333 0.9119133333333332V8h1.6666666666666665l-0.3333333333333333 1.3333333333333333h-1.3333333333333333v3.9587333333333334Zm-0.6666666666666666 1.3746C4.318753333333333 14.666666666666666 1.3339866666666667 11.681866666666666 1.3339866666666667 8c0 -3.6818999999999997 2.9847666666666663 -6.666666666666666 6.6666799999999995 -6.666666666666666 3.6818666666666666 0 6.666666666666666 2.9847666666666663 6.666666666666666 6.666666666666666 0 3.6818666666666666 -2.9848 6.666666666666666 -6.666666666666666 6.666666666666666Z" stroke-width="0.6667"></path>
</svg>