<svg xmlns="http://www.w3.org/2000/svg" viewBox="0 0 24 24" id="Logo-Social-Media-Twitter-Circle--Streamline-Pixel" height="24" width="24">
  <desc>
    Logo Social Media Twitter Circle Streamline Icon: https://streamlinehq.com
  </desc>
  <title>logo-social-media-twitter-circle</title>
  <g>
    <path d="M1.1400000000000001 17.145h1.1400000000000001v2.2800000000000002h1.1475v1.1475h1.1400000000000001v1.1400000000000001h2.2874999999999996v1.1475h2.2874999999999996V24h5.715v-1.1400000000000001h2.2800000000000002v-1.1475h2.2874999999999996v-1.1400000000000001h1.1400000000000001V19.424999999999997h1.1475v-2.2800000000000002h1.1400000000000001v-2.2874999999999996H24v-5.715h-1.1475V6.855h-1.1400000000000001V4.5675h-1.1475V3.4275H19.424999999999997V2.2874999999999996h-2.2874999999999996V1.1400000000000001h-2.2800000000000002V0h-5.715v1.1400000000000001H6.855v1.1475H4.5675v1.1400000000000001H3.4275v1.1400000000000001H2.2800000000000002v2.2874999999999996H1.1400000000000001v2.2874999999999996H0v5.715h1.1400000000000001ZM5.7075000000000005 6.855h1.1475v1.1475h1.1400000000000001v1.1400000000000001h1.1475v1.1400000000000001h2.2800000000000002V6.855h1.1475V5.715h4.5675v1.1400000000000001h1.1475v2.2874999999999996h2.2800000000000002v1.1400000000000001H19.424999999999997v1.1475h-1.1400000000000001v3.4275h-1.1475v2.2874999999999996h-1.1400000000000001v1.1400000000000001h-1.1400000000000001v1.1400000000000001H6.855v-1.1400000000000001h1.1400000000000001v-1.1400000000000001h1.1475v-1.1475h1.1400000000000001v-1.1400000000000001h-2.2874999999999996v-1.1400000000000001H6.855v-1.1475H5.7075000000000005Z" fill="#000000" stroke-width="0.75"></path>
    <path d="M14.857499999999998 8.0025h2.2800000000000002v2.2800000000000002h-2.2800000000000002Z" fill="#000000" stroke-width="0.75"></path>
  </g>
</svg>